<?xml version="1.0" encoding="utf-8"?>
<!-- Generator: Adobe Illustrator 21.1.0, SVG Export Plug-In . SVG Version: 6.00 Build 0)  -->
<svg version="1.1" id="Calque_1" xmlns="http://www.w3.org/2000/svg" xmlns:xlink="http://www.w3.org/1999/xlink" x="0px" y="0px"
	 viewBox="0 0 281.3 64.2" style="enable-background:new 0 0 281.3 64.2;" xml:space="preserve">
<style type="text/css">
	.st0{fill:#201D1D;}
</style>
<path class="st0" d="M128.1,7.9c-4.3-3.3-9.6-4.7-14.9-5.3c-7-0.9-14.1-0.8-21.1-0.8C77.2,1.9,62.3,3,47.6,5.6
	c-11.1,1.9-22.5,4.9-32.2,10.9C7.1,21.5-4,32.7,1.4,43.3c2.2,4.3,6.5,7,10.8,9c5.5,2.5,11.5,4,17.4,5.4c14.5,3.4,29.3,5.4,44.1,6.1
	c13.1,0.6,26.6,0.8,39.5-1.6c10.1-1.8,22-5.7,27-15.5c5.7-11-2-23.2-11.3-29.2c-12.3-8-27.9-9.8-42.1-11.5c-0.2,0-0.9,0-0.8,0.4
	c0.5,1.4,1,2.7,1.5,4.1c0.3,0.8,2.8,1.2,2.5,0.6c-0.5-1.4-1-2.7-1.5-4.1c-0.3,0.1-0.5,0.2-0.8,0.4c12.3,1.5,25.3,3,36.4,8.8
	c9,4.7,17.4,14.5,15.1,25.3c-2.1,10.1-12.5,15.4-21.5,18c-11.2,3.2-23.2,3.4-34.8,3.3c-13.7-0.1-27.4-1.3-40.9-3.7
	c-6.4-1.1-12.8-2.5-19.1-4.2c-5.4-1.4-11.3-3.2-15.6-6.9c-9.6-8.1-2.3-20.7,5.4-27c8-6.5,18.1-10,27.9-12.4
	c13.6-3.3,27.8-4.6,41.7-5.2c7.6-0.3,15.2-0.4,22.8-0.1c6.9,0.2,15.1,0.3,20.8,4.7C126.6,8.4,129.2,8.7,128.1,7.9L128.1,7.9z"/>
<g>
	<path class="st0" d="M198.4,35.5c3.1-2.1,6-4.5,8.1-7.7c1.9-3,5.5-10.7,0.8-12.7c-7.2-3.1-22.5,2.1-21.6,11.4
		c0.1,1.5,3.7,1.4,3.6,0c-0.4-4.7,3.5-7.1,7.4-8.7c1.8-0.7,8.1-1.4,9.3,0.3c0.7,1-0.6,4.7-1,5.7c-2.3,6.2-8.2,10.1-13.8,13.1
		c-1.9,1,1.2,1.9,2.2,1.7c2.7-0.8,17.3-4.1,16,2.5c-0.6,3.1-4.1,6.3-6.2,8.4c-4.2,4-9.3,7-14.5,9.7c-0.6,0-1.3,0-1.6,0.3
		c-0.7,0.5-1.3,1.1-2,1.6c-1.4,1.2,2,1.7,2.8,1.3c9.1-4.7,20.8-10.6,24.9-20.7C215.3,35.1,205.7,34.8,198.4,35.5z"/>
	<path class="st0" d="M277,7c-3.5-2.6-8.7-2.5-12.6-1.4c-9.5,2.7-15.7,11.5-15.8,20.5c-0.8,1.5-1.4,3-1.8,4.5
		c-6.6-8.3-20.8,1.9-26.4,7.5c0-0.1,0-0.3,0-0.4c0.4-4.6,2.8-9.4,4.9-13.4c2-3.8,4.2-7.4,6.7-11c1.7-2.4,7.5-12.6,11.1-11.4
		c1.2,0.4,4-0.7,1.8-1.4c-4-1.4-7.2,0.5-9.8,3.6c-4.9,5.7-9.3,12.4-12.8,19c-2.9,5.5-6.8,12.9-5.1,19.3c0,0.1,0.1,0.2,0.1,0.2
		c-1.3,3.4,0,6.6,5.1,7.2c1.6,0.2,3.3,0.1,4.9-0.2c0.1,0,0.1,0,0.2,0c5.1,0,16.8-5.4,20-11.8c0.9,1.5,2.2,2.8,4.4,3.8
		c10.9,5.1,23.6-2.7,27.5-13.1C281.7,22.5,283,11.5,277,7z M243.4,37.7c-0.9,1.7-2.4,3.4-4.1,4.8c-0.5,0-1,0-1.3,0.2
		c-1.6,1-7.2,3.7-11.8,4.7c-2.7-0.6-4.6-2.6-5.4-5.4c1.6-3,5.3-5.7,7.9-7.5c2-1.4,4.2-3,6.5-3.7C242.1,28.3,246.6,31.8,243.4,37.7z
		 M265.3,40.3c-6.5,3.1-15.8,0.8-15.5-7.2c0.9,2.5,2.4,4.9,4.6,7c0.7,0.7,3.8,0.1,3.4-0.3c-3.9-3.8-5.8-8.7-5.8-13.6
		c1.8-3.6,4.6-7,7.4-6.3c0.7,0.2,4.2-0.4,2.5-0.8c-3.7-1-6.7-0.3-9.1,1.7c0.6-2.1,1.6-4.1,2.9-6c2.7-3.9,7.3-7.7,12.1-8.4
		c7.5-1.1,9.5,5.7,9.7,11.5C277.8,26.8,273.8,36.2,265.3,40.3z"/>
	<path class="st0" d="M238,52.3c-4.6,0.6-9.3,1.4-13.8,2.7c-4.5,1.4-8.8,3.3-12.9,5.7l-0.4,0.2l0.2,0.3c0.3,0.5,0.7,0.9,1.2,1.1
		c0.5,0.2,1,0.3,1.5,0.3l0-0.2c-0.7-0.1-1.3-0.6-1.6-1.1c4.3-1.4,8.5-2.8,12.8-3.9c4.4-1.3,8.8-2.5,13.4-3.3
		c4.5-0.8,9.1-1.3,13.7-1.5c4.6-0.2,9.3-0.2,13.9,0.2l0-0.2c-4.6-0.7-9.3-1.1-13.9-1.1C247.3,51.5,242.7,51.8,238,52.3z"/>
</g>
<path d="M184.1,44.5C184.1,44.5,184.1,44.4,184.1,44.5c0.5-0.2,0.4-0.5,0.2-0.8c-3.3-4-6.6-8-9.9-12c-0.2-0.2-1.4-0.8-1.4-0.1
	c0.1,2.3,0.8,4.7-1.6,5.8c-1.4,0.7-6.2-0.7-7.8-0.9c-4.6-0.5-9.3-0.8-13.9-1.2c-0.3,0-0.5,0.2-0.4,0.5c0.1,0.3,0.2,0.6,0.3,1
	c-0.5,0.1-0.9,0.4-0.9,0.6c0,0.4,0.1,0.8,0.1,1.2c-0.4,0.1-0.7,0.3-0.7,0.5c-0.3,1.9-0.4,3.7-0.6,5.6c0,0.3,0.7,0.2,1.3,0
	c0,0.2,0,0.4,0.2,0.5c0,0.1-0.1,0.2,0,0.3c-0.8,0.4-1.1,1.5,0.2,1.3c3.8-0.6,7.5-1,11.3-1.3c3.9-0.1,7.8-0.2,11.7-0.4
	c1.1,0.8,1.2,2.1,1.2,4.4c0,0.1,0.1,0.3,0.2,0.4c-0.2,0.1-0.2,0.2-0.2,0.4c0,0.5,0,0.9,0.1,1.4c0,0.6,2.5-0.3,2.8-0.5
	c1.7-1.4,3.5-2.8,5.2-4.2c1-0.6,2-1.3,3-1.9C184.7,44.8,184.5,44.6,184.1,44.5z M152.6,40.9c0.1,0.7,0.2,1.5,0.3,2.2
	c0.1,0.4,1,0.1,1.1-0.2c1-1.9,1.9-3.9,2.7-5.9c0.2,0,0.5,0,0.7,0.1c-0.3,0-0.5,0.1-0.6,0.4c-0.6,2-1.4,4-2.4,5.8
	c-1,0-1.9,0.1-2.9,0.1C151.9,42.6,152.3,41.8,152.6,40.9z M180.5,40.4c-0.2,0-0.4,0.1-0.5,0.2c-1.1,1.6-2.4,3.1-3.8,4.4
	c0.7-2,1.6-3.9,2.5-5.9c0.3-0.6-0.9-0.6-1.1-0.1c-1,1.6-2,3.3-3,4.9c-0.1-0.1-0.3-0.2-0.6-0.2c-0.1,0-0.2,0-0.3,0
	c-0.1-0.1-0.2-0.1-0.2-0.1c0.3-0.4,0.1-0.9-0.6-0.9c1.8-1.9,3.2-4,4.1-6.5C178.3,37.6,179.6,39.1,180.5,40.4z M174.6,44.5
	c0.2,0.1,0.4,0.1,0.6,0c-0.2,0.4-0.3,0.8-0.4,1.2c-0.1-0.4-0.1-0.8-0.3-1.1C174.6,44.6,174.6,44.5,174.6,44.5z M181.6,43.2
	c-0.3,1.1-2.2,1.6-3.2,2.2c-1.3,0.8-2.5,1.6-3.6,2.6c0-0.3,0-0.7,0-1c0.2,0,0.5,0,0.6-0.1c1.5-1.1,2.8-2.4,4-3.9
	c-0.1,0.3-0.2,0.5-0.4,0.8c-0.3,0.6,0.9,0.6,1.1,0.1c0.5-0.9,0.7-1.7,0.8-2.7C181.5,42,181.8,42.7,181.6,43.2z M173.6,38.8
	c0.3,0,0.6,0,0.6-0.3c0.2-1.7,0.3-3.3,0.3-4.9c0.5,0.6,1.2,1.2,1.8,1.9c-0.1,0.1-0.2,0.2-0.3,0.3c-0.9,2.7-2.4,5-4.4,7
	c-0.7,0-1.4,0.1-2.1,0.1c0,0,0,0,0,0c0.8-1.1,1.6-2.3,2.3-3.4c0.3-0.5-0.9-0.4-1.1-0.1c-0.8,1.1-1.6,2.3-2.3,3.4
	c0,0.1-0.1,0.1-0.1,0.1c-0.2,0-0.4,0-0.6,0c-0.1,0-0.3,0-0.4,0c1.1-1.2,2.1-2.6,3-4c0.1-0.2-1-0.1-1.2,0.2c-0.8,1.4-1.8,2.7-2.9,3.9
	c-0.5,0-1,0.1-1.5,0.1c1.3-1.5,2.4-3.1,3.2-4.9C169.9,38.4,171.8,38.6,173.6,38.8z M167.1,38.1C167.1,38.1,167.1,38.1,167.1,38.1
	c-0.9,1.9-2,3.6-3.3,5.1c-0.3,0-0.7,0-1,0c1-1.5,2-3,3-4.5c0.1-0.2-0.9-0.1-1.1,0.2c-1,1.5-1.9,2.9-2.9,4.4c-0.4,0-0.8,0-1.2,0
	c0,0,0,0,0.1-0.1c0.8-1.3,1.6-2.6,2.4-3.9c0.4-0.6-0.7-0.9-1-0.4c-0.8,1.3-1.6,2.6-2.4,3.9c-0.1,0.2-0.1,0.3,0,0.5
	c-0.8,0-1.7,0-2.5,0c0.1,0,0.2-0.1,0.2-0.2c1-1.6,2-3.2,3-4.7c0.3-0.4-0.9-0.3-1.1,0c-1,1.6-2,3.2-3,4.7c0,0.1,0,0.1,0,0.2
	c-0.2,0-0.4,0-0.6,0c1-1.8,1.8-3.7,2.3-5.6c0.1-0.3-0.1-0.4-0.3-0.5C160.8,37.4,164,37.7,167.1,38.1z M151.2,37.5
	c0.8-1.4,3.1-0.8,4.5-0.6c-0.6,1.4-1.2,2.9-1.9,4.3c-0.2-1.4-0.2-2.8-0.2-4.3c0-0.5-1.1-0.2-1.2,0.2c-0.4,2.2-1.1,4.3-2,6.3
	c-0.1,0-0.2,0-0.2,0c0.7-1.5,0.9-2.7,1.1-4.3C151.4,38.8,151,37.8,151.2,37.5z"/>
</svg>
