<?xml version="1.0" encoding="utf-8"?>
<!-- Generator: Adobe Illustrator 21.1.0, SVG Export Plug-In . SVG Version: 6.00 Build 0)  -->
<svg version="1.1" id="Calque_1" xmlns="http://www.w3.org/2000/svg" xmlns:xlink="http://www.w3.org/1999/xlink" x="0px" y="0px"
	 viewBox="0 0 143 143" style="enable-background:new 0 0 143 143;" xml:space="preserve">
<style type="text/css">
	.st0{fill:none;stroke:#5A5B5B;stroke-width:2;stroke-miterlimit:10;}
	.st1{fill:#E85A32;}
</style>
<title>Plan de travail 1</title>
<circle class="st0" cx="71.5" cy="71.5" r="70"/>
<g>
	<g>
		<path class="st1" d="M71.5,42.2c-1.1,0-2-0.9-2-2V27.5c0-1.1,0.9-2,2-2s2,0.9,2,2v12.7C73.5,41.3,72.6,42.2,71.5,42.2z"/>
		<path class="st1" d="M77.8,106.8H65.2c-1.1,0-2-0.9-2-2s0.9-2,2-2h12.7c1.1,0,2,0.9,2,2S78.9,106.8,77.8,106.8z"/>
		<path class="st1" d="M75.8,113.5h-8.7c-1.1,0-2-0.9-2-2s0.9-2,2-2h8.7c1.1,0,2,0.9,2,2S76.9,113.5,75.8,113.5z"/>
		<path class="st1" d="M51.3,50.5c-0.5,0-1-0.2-1.4-0.6l-9-9c-0.8-0.8-0.8-2,0-2.8c0.8-0.8,2-0.8,2.8,0l9,9c0.8,0.8,0.8,2,0,2.8
			C52.3,50.3,51.8,50.5,51.3,50.5z"/>
		<path class="st1" d="M42.9,70.8H30.2c-1.1,0-2-0.9-2-2s0.9-2,2-2h12.7c1.1,0,2,0.9,2,2S44,70.8,42.9,70.8z"/>
		<path class="st1" d="M42.3,99.9c-0.5,0-1-0.2-1.4-0.6c-0.8-0.8-0.8-2,0-2.8l9-9c0.8-0.8,2-0.8,2.8,0c0.8,0.8,0.8,2,0,2.8l-9,9
			C43.4,99.7,42.8,99.9,42.3,99.9z"/>
		<path class="st1" d="M100.7,99.9c-0.5,0-1-0.2-1.4-0.6l-9-9c-0.8-0.8-0.8-2,0-2.8c0.8-0.8,2-0.8,2.8,0l9,9c0.8,0.8,0.8,2,0,2.8
			C101.7,99.7,101.2,99.9,100.7,99.9z"/>
		<path class="st1" d="M112.8,70.8h-12.7c-1.1,0-2-0.9-2-2s0.9-2,2-2h12.7c1.1,0,2,0.9,2,2S113.9,70.8,112.8,70.8z"/>
		<path class="st1" d="M91.7,50.5c-0.5,0-1-0.2-1.4-0.6c-0.8-0.8-0.8-2,0-2.8l9-9c0.8-0.8,2-0.8,2.8,0c0.8,0.8,0.8,2,0,2.8l-9,9
			C92.7,50.3,92.2,50.5,91.7,50.5z"/>
		<path class="st1" d="M71.5,47.5C59.6,47.5,50,57.1,50,69c0,6.6,3.2,12.7,9.3,17.7c1.8,1.5,2.8,5,2.8,10c0,2.3,1.4,3.3,2.7,3.3
			h13.4c1.3,0,2.7-1,2.7-3.3c0-4.9,1-8.5,2.8-10c6.1-5,9.3-11.2,9.3-17.7C93,57.1,83.4,47.5,71.5,47.5z M81.1,83.6
			c-0.6,0.5-1.1,1.1-1.6,1.8h-16c-0.5-0.7-1-1.3-1.6-1.8c-3.6-3-7.9-7.9-7.9-14.6c0-9.6,7.9-17.5,17.5-17.5S89,59.4,89,69
			C89,75.7,84.7,80.7,81.1,83.6z"/>
	</g>
</g>
</svg>
