<?xml version="1.0" encoding="utf-8"?>
<!-- Generator: Adobe Illustrator 21.1.0, SVG Export Plug-In . SVG Version: 6.00 Build 0)  -->
<svg version="1.1" id="Calque_1" xmlns="http://www.w3.org/2000/svg" xmlns:xlink="http://www.w3.org/1999/xlink" x="0px" y="0px"
	 viewBox="0 0 143 143" style="enable-background:new 0 0 143 143;" xml:space="preserve">
<style type="text/css">
	.st0{fill:none;stroke:#5A5B5B;stroke-width:2;stroke-miterlimit:10;}
	.st1{fill:#E85A32;}
</style>
<circle class="st0" cx="71.5" cy="71.5" r="70"/>
<g>
	<polygon class="st1" points="81.8,37.8 81.8,56 100.5,56 	"/>
	<path class="st1" d="M80.4,61C78,61,76,59,76,56.6V37.8H46.9c-2.4,0-4.4,2-4.4,4.4v58.7c0,2.4,2,4.4,4.4,4.4h49.2
		c2.4,0,4.4-2,4.4-4.4V61H80.4z M84.6,90.4H58.4c-1,0-1.8-0.8-1.8-1.8s0.8-1.8,1.8-1.8h26.2c1,0,1.8,0.8,1.8,1.8
		S85.6,90.4,84.6,90.4z M84.6,80.3H58.4c-1,0-1.8-0.8-1.8-1.8s0.8-1.8,1.8-1.8h26.2c1,0,1.8,0.8,1.8,1.8S85.6,80.3,84.6,80.3z
		 M84.6,70.2H58.4c-1,0-1.8-0.8-1.8-1.8s0.8-1.8,1.8-1.8h26.2c1,0,1.8,0.8,1.8,1.8S85.6,70.2,84.6,70.2z"/>
</g>
</svg>
