<?xml version="1.0" encoding="utf-8"?>
<!-- Generator: Adobe Illustrator 21.1.0, SVG Export Plug-In . SVG Version: 6.00 Build 0)  -->
<svg version="1.1" id="Calque_1" xmlns="http://www.w3.org/2000/svg" xmlns:xlink="http://www.w3.org/1999/xlink" x="0px" y="0px"
	 viewBox="0 0 143 143" style="enable-background:new 0 0 143 143;" xml:space="preserve">
<style type="text/css">
	.st0{fill:none;stroke:#5A5B5B;stroke-width:2;stroke-miterlimit:10;}
	.st1{fill:#E85A32;}
</style>
<title>radio</title>
<circle class="st0" cx="71.5" cy="71.5" r="70"/>
<g id="XMLID_1283_">
	<path id="XMLID_1284_" class="st1" d="M94.4,85.5c0,2.6-2.1,4.7-4.7,4.7s-4.7-2.1-4.7-4.7s2.1-4.7,4.7-4.7S94.4,82.9,94.4,85.5z
		 M105.3,62.2v31.1c0,4.3-3.5,7.8-7.8,7.8H45.7c-4.3,0-7.8-3.5-7.8-7.8V62.2c0-3.6,2.4-6.5,5.7-7.5c0-0.1,0-0.2,0-0.3
		c0-2.6,2.1-4.7,4.7-4.7c0.6,0,1.2,0.1,1.7,0.3l45-12.5c0,0,0,0,0,0c0-2.1,1.7-3.7,3.7-3.7c2.1,0,3.7,1.7,3.7,3.7s-1.7,3.7-3.7,3.7
		c-1.3,0-2.5-0.8-3.1-1.8l-43.1,13c0.3,0.6,0.4,1.3,0.4,2h44.5C101.8,54.5,105.3,57.9,105.3,62.2z M82,70h15.5V59.6H82V70z
		 M45.7,59.6V70h33.6V59.6H45.7z M48.3,79.1c0-0.7-0.6-1.3-1.3-1.3s-1.3,0.6-1.3,1.3V92c0,0.7,0.6,1.3,1.3,1.3s1.3-0.6,1.3-1.3V79.1
		z M53.5,79.1c0-0.7-0.6-1.3-1.3-1.3s-1.3,0.6-1.3,1.3V92c0,0.7,0.6,1.3,1.3,1.3s1.3-0.6,1.3-1.3V79.1z M58.7,79.1
		c0-0.7-0.6-1.3-1.3-1.3s-1.3,0.6-1.3,1.3V92c0,0.7,0.6,1.3,1.3,1.3c0.7,0,1.3-0.6,1.3-1.3L58.7,79.1L58.7,79.1z M63.9,79.1
		c0-0.7-0.6-1.3-1.3-1.3s-1.3,0.6-1.3,1.3V92c0,0.7,0.6,1.3,1.3,1.3s1.3-0.6,1.3-1.3V79.1z M69,79.1c0-0.7-0.6-1.3-1.3-1.3
		s-1.3,0.6-1.3,1.3V92c0,0.7,0.6,1.3,1.3,1.3S69,92.7,69,92V79.1z M74.2,79.1c0-0.7-0.6-1.3-1.3-1.3s-1.3,0.6-1.3,1.3V92
		c0,0.7,0.6,1.3,1.3,1.3c0.7,0,1.3-0.6,1.3-1.3L74.2,79.1L74.2,79.1z M97.9,85.5c0-4.5-3.7-8.2-8.2-8.2c-4.5,0-8.2,3.7-8.2,8.2
		s3.7,8.2,8.2,8.2C94.3,93.7,97.9,90,97.9,85.5z"/>
</g>
</svg>
