<svg id="Calque_1" data-name="Calque 1" xmlns="http://www.w3.org/2000/svg" viewBox="0 0 143 143"><defs><style>.cls-1{fill:none;stroke:#5a5b5b;stroke-miterlimit:10;stroke-width:2px;}.cls-2{fill:#e85a32;}</style></defs><title>web</title><circle class="cls-1" cx="71.5" cy="71.5" r="70"/><path class="cls-2" d="M109.14,36.4H33.86a6,6,0,0,0-6,6V93.28a6,6,0,0,0,6,6h26.8c-.65,3.1-2.33,5.17-2.81,6.71-.38,1.24-.46,4.58,3.05,4.58H82.09c3.52,0,3.44-3.34,3.05-4.58-.48-1.54-2.16-3.6-2.81-6.71h26.8a6,6,0,0,0,6-6V42.43A6,6,0,0,0,109.14,36.4Zm-.26,45.26a1.73,1.73,0,0,1-1.73,1.73H35.86a1.73,1.73,0,0,1-1.73-1.73V44.43a1.73,1.73,0,0,1,1.73-1.73h71.28a1.73,1.73,0,0,1,1.73,1.73Z"/></svg>